<?xml version="1.0" standalone="no"?>
<!DOCTYPE svg PUBLIC "-//W3C//DTD SVG 20010904//EN"
 "http://www.w3.org/TR/2001/REC-SVG-20010904/DTD/svg10.dtd">
<svg version="1.0" xmlns="http://www.w3.org/2000/svg"
 width="64.000000pt" height="43.000000pt" viewBox="0 0 64.000000 43.000000"
 preserveAspectRatio="xMidYMid meet">

<g transform="translate(0.000000,43.000000) scale(0.100000,-0.100000)"
fill="#000000" stroke="none">
<path d="M0 350 l0 -80 135 0 135 0 0 80 0 80 -135 0 -135 0 0 -80z m147 20
c-3 -13 0 -17 9 -13 9 3 14 -1 14 -12 0 -9 -4 -14 -9 -10 -5 3 -13 -4 -16 -15
-5 -17 -10 -19 -21 -9 -7 6 -11 16 -7 22 3 5 1 7 -5 3 -6 -3 -13 -2 -17 3 -3
5 1 13 8 18 7 4 17 16 20 26 9 23 30 11 24 -13z"/>
<path d="M370 350 l0 -80 135 0 135 0 0 80 0 80 -135 0 -135 0 0 -80z m150 25
c0 -7 7 -16 16 -19 8 -3 12 -10 9 -16 -4 -6 -11 -7 -17 -4 -6 4 -8 2 -5 -3 4
-6 0 -16 -7 -22 -11 -10 -16 -8 -21 9 -3 11 -11 18 -16 15 -5 -4 -9 1 -9 10 0
11 5 15 16 11 9 -3 12 -2 9 5 -9 14 3 42 15 34 5 -3 10 -12 10 -20z"/>
<path d="M0 80 l0 -81 133 3 132 3 3 78 3 77 -136 0 -135 0 0 -80z m143 22
c-2 -15 2 -20 12 -16 8 4 15 1 15 -5 0 -6 -4 -11 -8 -11 -5 0 -14 -10 -20 -22
l-11 -23 -7 23 c-3 12 -14 22 -23 22 -14 1 -14 2 2 14 9 7 17 21 17 30 0 10 6
16 13 13 6 -2 11 -14 10 -25z"/>
<path d="M372 83 l3 -78 133 -3 132 -3 0 81 0 80 -135 0 -136 0 3 -77z m148
31 c0 -9 8 -23 18 -30 15 -12 15 -13 1 -14 -9 0 -20 -10 -23 -22 l-7 -23 -11
23 c-6 12 -15 22 -20 22 -4 0 -8 5 -8 11 0 6 7 8 16 5 12 -5 15 -2 10 10 -3 9
-4 20 0 25 9 15 24 10 24 -7z"/>
</g>
</svg>
